<?xml version="1.0" encoding="UTF-8"?>
<svg width="193px" height="20px" viewBox="0 0 193 20" version="1.1" xmlns="http://www.w3.org/2000/svg" xmlns:xlink="http://www.w3.org/1999/xlink">
    <!-- Generator: Sketch 60 (88103) - https://sketch.com -->
    <title>Trustpilot Logo@2x</title>
    <desc>Created with Sketch.</desc>
    <g id="Home" stroke="none" stroke-width="1" fill="none" fill-rule="evenodd">
        <g id="Title-/-Desktop" transform="translate(-216.000000, -161.000000)">
            <g id=":-Hero" transform="translate(0.000000, -417.000000)">
                <g id=":-Trust-Badge" transform="translate(216.000000, 578.000000)">
                    <g id="Trustpilot-Logo">
                        <g id="Stars" transform="translate(89.000000, 0.000000)" fill-rule="nonzero">
                            <path d="M20,0 L20,20 L0,20 L0,0 L20,0 Z M13.0416667,12.7083333 L10,13.4791667 L14.3125,16.625 L13.0416667,12.7083333 Z M10,3.375 L8.35416667,8.41666667 L3,8.41666667 L7.33333333,11.5416667 L5.6875,16.5833333 L10.0208333,13.4583333 L12.6875,11.5416667 L17,8.41666667 L11.6458333,8.41666667 L10,3.375 Z" id="Combined-Shape" fill="#00B67A"></path>
                            <path d="M41,0 L41,20 L21,20 L21,0 L41,0 Z M34.7083333,12.7083333 L31.6666667,13.4791667 L35.9791667,16.625 L34.7083333,12.7083333 Z M31.6666667,3.375 L30.0208333,8.41666667 L24.6666667,8.41666667 L29,11.5416667 L27.3541667,16.5833333 L31.6875,13.4583333 L34.3541667,11.5416667 L38.6666667,8.41666667 L33.3125,8.41666667 L31.6666667,3.375 Z" id="Combined-Shape" fill="#00B67A"></path>
                            <path d="M62,0 L62,20 L42,20 L42,0 L62,0 Z M55.375,12.7083333 L52.3333333,13.4791667 L56.6458333,16.625 L55.375,12.7083333 Z M52.3333333,3.375 L50.6875,8.41666667 L45.3333333,8.41666667 L49.6666667,11.5416667 L48.0208333,16.5833333 L52.3541667,13.4583333 L55.0208333,11.5416667 L59.3333333,8.41666667 L53.9791667,8.41666667 L52.3333333,3.375 Z" id="Combined-Shape" fill="#00B67A"></path>
                            <path d="M83,0 L83,20 L63,20 L63,0 L83,0 Z M76.0416667,12.7083333 L73,13.4791667 L77.3125,16.625 L76.0416667,12.7083333 Z M73,3.375 L71.3541667,8.41666667 L66,8.41666667 L70.3333333,11.5416667 L68.6875,16.5833333 L73.0208333,13.4583333 L75.6875,11.5416667 L80,8.41666667 L74.6458333,8.41666667 L73,3.375 Z" id="Combined-Shape" fill="#00B67A"></path>
                            <g id="Half" transform="translate(83.666667, 0.000000)">
                                <rect id="Rectangle" fill="#DCDCE6" x="10.3333333" y="0" width="10" height="20"></rect>
                                <rect id="Rectangle" fill="#00B67A" x="0.333333333" y="0" width="10" height="20"></rect>
                            </g>
                            <path d="M94.6666667,13.4791667 L97.7083333,12.7083333 L98.9791667,16.625 L94.6666667,13.4791667 Z M101.666667,8.41666667 L96.3125,8.41666667 L94.6666667,3.375 L93.0208333,8.41666667 L87.6666667,8.41666667 L92,11.5416667 L90.3541667,16.5833333 L94.6875,13.4583333 L97.3541667,11.5416667 L101.666667,8.41666667 L101.666667,8.41666667 L101.666667,8.41666667 L101.666667,8.41666667 Z" id="Shape" fill="#FFFFFF"></path>
                            <path d="M94.6666667,13.4791667 L97.7083333,12.7083333 L98.9791667,16.625 L94.6666667,13.4791667 Z M101.666667,8.41666667 L96.3125,8.41666667 L94.6666667,3.375 L93.0208333,8.41666667 L87.6666667,8.41666667 L92,11.5416667 L90.3541667,16.5833333 L94.6875,13.4583333 L97.3541667,11.5416667 L101.666667,8.41666667 L101.666667,8.41666667 L101.666667,8.41666667 L101.666667,8.41666667 Z" id="Shape" fill="#FFFFFF"></path>
                        </g>
                        <path d="M21.3214642,7.12162162 L29.5023295,7.12162162 L29.5023295,8.64864865 L26.281198,8.64864865 L26.281198,17.2567568 L24.5156406,17.2567568 L24.5156406,8.64864865 L21.3079867,8.64864865 L21.3214642,7.12162162 L21.3214642,7.12162162 Z M29.1519135,9.91891892 L30.6613977,9.91891892 L30.6613977,11.3378378 L30.6883527,11.3378378 C30.7422629,11.1351351 30.8366057,10.9459459 30.971381,10.7567568 C31.1061564,10.5675676 31.2678869,10.3918919 31.4700499,10.2432432 C31.6587354,10.0810811 31.874376,9.95945946 32.1169717,9.86486486 C32.3460899,9.77027027 32.5886855,9.71621622 32.8312812,9.71621622 C33.0199667,9.71621622 33.1547421,9.72972973 33.2221298,9.72972973 C33.2895175,9.74324324 33.3703827,9.75675676 33.4377704,9.75675676 L33.4377704,11.3108108 C33.3299501,11.2837838 33.2086522,11.2702703 33.0873544,11.2567568 C32.9660566,11.2432432 32.8582363,11.2297297 32.7369384,11.2297297 C32.4673877,11.2297297 32.2113145,11.2837838 31.9687188,11.3918919 C31.7261231,11.5 31.5239601,11.6621622 31.3352745,11.8648649 C31.1600666,12.0810811 31.0118136,12.3378378 30.9039933,12.6486486 C30.796173,12.9594595 30.7422629,13.3243243 30.7422629,13.7297297 L30.7422629,17.2162162 L29.1249584,17.2162162 L29.1519135,9.91891892 L29.1519135,9.91891892 Z M40.850416,17.2567568 L39.2600666,17.2567568 L39.2600666,16.2297297 L39.2331115,16.2297297 C39.0309484,16.6081081 38.7344426,16.8918919 38.343594,17.1216216 C37.9527454,17.3513514 37.5484193,17.4594595 37.1440932,17.4594595 C36.187188,17.4594595 35.4863561,17.2297297 35.0550749,16.7432432 C34.6237937,16.2702703 34.4081531,15.5405405 34.4081531,14.5810811 L34.4081531,9.91891892 L36.0254576,9.91891892 L36.0254576,14.4189189 C36.0254576,15.0675676 36.1467554,15.527027 36.4028286,15.7837838 C36.6454243,16.0540541 36.9958403,16.1891892 37.440599,16.1891892 C37.7775374,16.1891892 38.0605657,16.1351351 38.2896839,16.027027 C38.518802,15.9189189 38.7074875,15.7837838 38.8422629,15.6081081 C38.9905158,15.4324324 39.0848586,15.2162162 39.1522463,14.972973 C39.2196339,14.7297297 39.246589,14.4594595 39.246589,14.1756757 L39.246589,9.91891892 L40.8638935,9.91891892 L40.8638935,17.2567568 L40.850416,17.2567568 Z M43.5998336,14.9054054 C43.6537438,15.3783784 43.8289517,15.7027027 44.1389351,15.9054054 C44.4489185,16.0945946 44.8262895,16.1891892 45.2575707,16.1891892 C45.4058236,16.1891892 45.5810316,16.1756757 45.7697171,16.1486486 C45.9584027,16.1216216 46.1470882,16.0810811 46.3088186,16.0135135 C46.4840266,15.9459459 46.618802,15.8513514 46.7266223,15.7162162 C46.8344426,15.5810811 46.8883527,15.4189189 46.8748752,15.2162162 C46.8613977,15.0135135 46.79401,14.8378378 46.6457571,14.7027027 C46.4975042,14.5675676 46.3222962,14.472973 46.1066556,14.3783784 C45.891015,14.2972973 45.6349418,14.2297297 45.3519135,14.1756757 C45.0688852,14.1216216 44.7858569,14.0540541 44.4893511,13.9864865 C44.1928453,13.9189189 43.8963394,13.8378378 43.6133111,13.7432432 C43.3302829,13.6486486 43.0876872,13.527027 42.8585691,13.3513514 C42.6429285,13.1891892 42.4542429,12.9864865 42.3329451,12.7297297 C42.1981697,12.472973 42.130782,12.1756757 42.130782,11.7972973 C42.130782,11.3918919 42.2251248,11.0675676 42.4272879,10.7972973 C42.6159734,10.527027 42.8720466,10.3108108 43.1685524,10.1486486 C43.4650582,9.98648649 43.8019967,9.86486486 44.1658902,9.7972973 C44.5297837,9.72972973 44.8801997,9.7027027 45.2036606,9.7027027 C45.5810316,9.7027027 45.9449251,9.74324324 46.2818636,9.82432432 C46.618802,9.90540541 46.9422629,10.027027 47.2118136,10.2162162 C47.4948419,10.3918919 47.7239601,10.6351351 47.8991681,10.9189189 C48.0878536,11.2027027 48.1956739,11.5540541 48.249584,11.9594595 L46.5648918,11.9594595 C46.4840266,11.5675676 46.3088186,11.3108108 46.0392679,11.1756757 C45.7562396,11.0405405 45.4462562,10.972973 45.0823627,10.972973 C44.9745424,10.972973 44.8262895,10.9864865 44.6780366,11 C44.5163062,11.027027 44.3815308,11.0540541 44.2332779,11.1081081 C44.0985025,11.1621622 43.9772047,11.2432432 43.8828619,11.3378378 C43.7885191,11.4324324 43.734609,11.5675676 43.734609,11.7297297 C43.734609,11.9324324 43.8019967,12.0810811 43.936772,12.2027027 C44.0715474,12.3243243 44.2467554,12.4189189 44.4758735,12.5135135 C44.6915141,12.5945946 44.9475874,12.6621622 45.2306156,12.7162162 C45.5136439,12.7702703 45.8101498,12.8378378 46.1066556,12.9054054 C46.4031614,12.972973 46.6861897,13.0540541 46.969218,13.1486486 C47.2522463,13.2432432 47.5083195,13.3648649 47.7239601,13.5405405 C47.9396007,13.7027027 48.1282862,13.9054054 48.2630616,14.1486486 C48.3978369,14.3918919 48.4652246,14.7027027 48.4652246,15.0540541 C48.4652246,15.4864865 48.3708819,15.8513514 48.1687188,16.1621622 C47.9665557,16.4594595 47.7104825,16.7162162 47.4004992,16.9054054 C47.0905158,17.0945946 46.7266223,17.2297297 46.3492512,17.3243243 C45.9584027,17.4054054 45.5810316,17.4594595 45.2036606,17.4594595 C44.7454243,17.4594595 44.3141431,17.4054054 43.9232945,17.2972973 C43.5324459,17.1891892 43.18203,17.027027 42.8990017,16.8243243 C42.6159734,16.6081081 42.3868552,16.3513514 42.2251248,16.027027 C42.0633943,15.7162162 41.9690516,15.3378378 41.955574,14.8918919 L43.5863561,14.8918919 L43.5863561,14.9054054 L43.5998336,14.9054054 Z M48.9234609,9.91891892 L50.1499168,9.91891892 L50.1499168,7.7027027 L51.7672213,7.7027027 L51.7672213,9.90540541 L53.2227953,9.90540541 L53.2227953,11.1081081 L51.7672213,11.1081081 L51.7672213,15.027027 C51.7672213,15.2027027 51.7806988,15.3378378 51.7941764,15.472973 C51.8076539,15.5945946 51.8480865,15.7027027 51.8885191,15.7837838 C51.9424293,15.8648649 52.0232945,15.9324324 52.1176373,15.972973 C52.2254576,16.0135135 52.3602329,16.0405405 52.5489185,16.0405405 C52.6567388,16.0405405 52.7780366,16.0405405 52.8858569,16.027027 C52.9936772,16.0135135 53.114975,16 53.2227953,15.972973 L53.2227953,17.2297297 C53.0475874,17.2567568 52.8723794,17.2702703 52.6971714,17.2837838 C52.5219634,17.3108108 52.3602329,17.3108108 52.1715474,17.3108108 C51.7402662,17.3108108 51.4033278,17.2702703 51.1472546,17.1891892 C50.8911814,17.1081081 50.6890183,16.9864865 50.5407654,16.8378378 C50.3925125,16.6756757 50.2981697,16.4864865 50.2442596,16.2567568 C50.1903494,16.027027 50.1633943,15.7432432 50.1499168,15.4459459 L50.1499168,11.1216216 L48.9234609,11.1216216 L48.9234609,9.89189189 L48.9234609,9.89189189 L48.9234609,9.91891892 Z M54.3549085,9.91891892 L55.8778702,9.91891892 L55.8778702,10.9189189 L55.9048253,10.9189189 C56.1339434,10.4864865 56.4439268,10.1891892 56.8482529,10 C57.252579,9.81081081 57.6838602,9.71621622 58.1690516,9.71621622 C58.7485857,9.71621622 59.2472546,9.81081081 59.6785358,10.027027 C60.109817,10.2297297 60.4602329,10.5 60.7432612,10.8648649 C61.0262895,11.2162162 61.2419301,11.6351351 61.3767055,12.1081081 C61.5114809,12.5810811 61.5923461,13.0945946 61.5923461,13.6216216 C61.5923461,14.1216216 61.5249584,14.5945946 61.4036606,15.0540541 C61.2688852,15.5135135 61.0801997,15.9324324 60.8241265,16.2837838 C60.5680532,16.6351351 60.2445923,16.9189189 59.8402662,17.1351351 C59.4359401,17.3513514 58.9777038,17.4594595 58.4386023,17.4594595 C58.2094842,17.4594595 57.9668885,17.4324324 57.7377704,17.3918919 C57.5086522,17.3513514 57.2795341,17.2837838 57.0638935,17.1891892 C56.8482529,17.0945946 56.6460899,16.972973 56.4708819,16.8243243 C56.2821963,16.6756757 56.1339434,16.5 56.0126456,16.3108108 L55.9856905,16.3108108 L55.9856905,19.972973 L54.368386,19.972973 L54.368386,9.91891892 L54.3549085,9.91891892 Z M60.0019967,13.5945946 C60.0019967,13.2702703 59.9615641,12.9459459 59.8672213,12.6351351 C59.7863561,12.3243243 59.6515807,12.0540541 59.4763727,11.8108108 C59.3011647,11.5675676 59.0855241,11.3783784 58.8429285,11.2297297 C58.5868552,11.0810811 58.2903494,11.0135135 57.9668885,11.0135135 C57.2930116,11.0135135 56.7808652,11.2432432 56.4304493,11.7162162 C56.0935108,12.1891892 55.9183028,12.8243243 55.9183028,13.6081081 C55.9183028,13.9864865 55.9587354,14.3243243 56.0530782,14.6351351 C56.147421,14.9459459 56.2687188,15.2162162 56.4574043,15.4459459 C56.6326123,15.6756757 56.8482529,15.8513514 57.1043261,15.9864865 C57.3603993,16.1216216 57.6434276,16.1891892 57.9803661,16.1891892 C58.3577371,16.1891892 58.6542429,16.1081081 58.9103161,15.9594595 C59.1663894,15.8108108 59.3685524,15.6081081 59.5437604,15.3783784 C59.7054908,15.1351351 59.8267887,14.8648649 59.8941764,14.5540541 C59.9615641,14.2297297 60.0019967,13.9189189 60.0019967,13.5945946 L60.0019967,13.5945946 Z M62.8457571,7.12162162 L64.4630616,7.12162162 L64.4630616,8.64864865 L62.8457571,8.64864865 C62.8457571,8.64864865 62.8457571,7.12162162 62.8457571,7.12162162 Z M62.8457571,9.91891892 L64.4630616,9.91891892 L64.4630616,17.2567568 L62.8457571,17.2567568 L62.8457571,9.91891892 L62.8457571,9.91891892 Z M65.9051581,7.12162162 L67.5224626,7.12162162 L67.5224626,17.2567568 L65.9051581,17.2567568 L65.9051581,7.12162162 L65.9051581,7.12162162 Z M72.4552413,17.4594595 C71.8757072,17.4594595 71.3500832,17.3648649 70.8918469,17.1621622 C70.4336106,16.9594595 70.0562396,16.7027027 69.7327787,16.3648649 C69.4227953,16.027027 69.1801997,15.6081081 69.0184692,15.1351351 C68.8567388,14.6621622 68.762396,14.1351351 68.762396,13.5810811 C68.762396,13.027027 68.8432612,12.5135135 69.0184692,12.0405405 C69.1801997,11.5675676 69.4227953,11.1621622 69.7327787,10.8108108 C70.0427621,10.472973 70.4336106,10.2027027 70.8918469,10.0135135 C71.3500832,9.82432432 71.8757072,9.71621622 72.4552413,9.71621622 C73.0347754,9.71621622 73.5603993,9.81081081 74.0186356,10.0135135 C74.4768719,10.2027027 74.8542429,10.472973 75.1777038,10.8108108 C75.4876872,11.1486486 75.7302829,11.5675676 75.8920133,12.0405405 C76.0537438,12.5135135 76.1480865,13.027027 76.1480865,13.5810811 C76.1480865,14.1486486 76.0672213,14.6621622 75.8920133,15.1351351 C75.7168053,15.6081081 75.4876872,16.0135135 75.1777038,16.3648649 C74.8677205,16.7027027 74.4768719,16.972973 74.0186356,17.1621622 C73.5603993,17.3513514 73.0482529,17.4594595 72.4552413,17.4594595 L72.4552413,17.4594595 Z M72.4552413,16.1756757 C72.8056572,16.1756757 73.1291181,16.0945946 73.3851913,15.9459459 C73.6547421,15.7972973 73.8569052,15.5945946 74.0321131,15.3513514 C74.2073211,15.1081081 74.328619,14.8243243 74.4094842,14.527027 C74.4903494,14.2162162 74.530782,13.9054054 74.530782,13.5810811 C74.530782,13.2702703 74.4903494,12.9594595 74.4094842,12.6486486 C74.328619,12.3378378 74.2073211,12.0675676 74.0321131,11.8243243 C73.8569052,11.5810811 73.6412646,11.3918919 73.3851913,11.2432432 C73.1156406,11.0945946 72.8056572,11.0135135 72.4552413,11.0135135 C72.1048253,11.0135135 71.7813644,11.0945946 71.5252912,11.2432432 C71.2557404,11.3918919 71.0535774,11.5945946 70.8783694,11.8243243 C70.7031614,12.0675676 70.5818636,12.3378378 70.5009983,12.6486486 C70.4201331,12.9594595 70.3797005,13.2702703 70.3797005,13.5810811 C70.3797005,13.9054054 70.4201331,14.2162162 70.5009983,14.527027 C70.5818636,14.8378378 70.7031614,15.1081081 70.8783694,15.3513514 C71.0535774,15.5945946 71.269218,15.7972973 71.5252912,15.9459459 C71.7948419,16.1081081 72.1048253,16.1756757 72.4552413,16.1756757 L72.4552413,16.1756757 Z M76.6332779,9.91891892 L77.8597338,9.91891892 L77.8597338,7.7027027 L79.4770383,7.7027027 L79.4770383,9.90540541 L80.9326123,9.90540541 L80.9326123,11.1081081 L79.4770383,11.1081081 L79.4770383,15.027027 C79.4770383,15.2027027 79.4905158,15.3378378 79.5039933,15.472973 C79.5174709,15.5945946 79.5579035,15.7027027 79.5983361,15.7837838 C79.6522463,15.8648649 79.7331115,15.9324324 79.8274542,15.972973 C79.9352745,16.0135135 80.0700499,16.0405405 80.2587354,16.0405405 C80.3665557,16.0405405 80.4878536,16.0405405 80.5956739,16.027027 C80.7034942,16.0135135 80.824792,16 80.9326123,15.972973 L80.9326123,17.2297297 C80.7574043,17.2567568 80.5821963,17.2702703 80.4069884,17.2837838 C80.2317804,17.3108108 80.0700499,17.3108108 79.8813644,17.3108108 C79.4500832,17.3108108 79.1131448,17.2702703 78.8570715,17.1891892 C78.6009983,17.1081081 78.3988353,16.9864865 78.2505824,16.8378378 C78.1023295,16.6756757 78.0079867,16.4864865 77.9540765,16.2567568 C77.9001664,16.027027 77.8732113,15.7432432 77.8597338,15.4459459 L77.8597338,11.1216216 L76.6332779,11.1216216 L76.6332779,9.89189189 L76.6332779,9.89189189 L76.6332779,9.91891892 Z" id="Shape" fill="#000000" fill-rule="nonzero"></path>
                        <path d="M9.7577371,0.0675675676 L12.0354409,7.12162162 L19.434609,7.12162162 L13.4505824,11.472973 L15.7282862,18.527027 L9.74425957,14.1621622 L3.76023295,18.527027 L6.05141431,11.472973 L0.0673876872,7.10810811 L7.46655574,7.12162162 L9.7577371,0.0675675676 Z M13.4505824,11.472973 L9.7577371,14.1621622 L13.9627288,13.0675676 L13.4505824,11.472973 Z" id="Combined-Shape" fill="#00B67A"></path>
                    </g>
                </g>
            </g>
        </g>
    </g>
</svg>